<svg width="133" height="53" viewBox="0 0 133 53" fill="none" xmlns="http://www.w3.org/2000/svg">
<path d="M22.5547 24.3321C25.1797 24.3321 26.1042 25.3703 26.1042 28.4579V29.6039C26.1042 32.6106 25.173 33.6488 22.5007 33.6488C19.8285 33.6488 18.8972 32.6106 18.8972 29.577V28.0197C18.8972 25.2624 19.8285 24.3321 22.5547 24.3321ZM15.125 16.1614V29.5837C15.125 34.5589 17.4194 36.6353 22.4198 36.6353C27.4201 36.6353 29.9034 34.6129 29.9034 29.6107V28.3231C29.9034 23.6242 27.771 21.3254 23.1283 21.3254C21.6505 21.3254 20.0377 21.622 18.9512 22.4714V15.5547L15.125 16.1547V16.1614Z" fill="white"/>
<path d="M53.8889 29.4393C53.8889 32.0078 52.9914 32.8033 50.3934 32.8033C47.4714 32.8033 46.8978 31.7921 46.8978 28.8123V28.3472C46.8978 25.3944 47.4174 24.3292 50.3934 24.3292C53.3693 24.3292 53.8889 25.3674 53.8889 28.3741V29.4393ZM50.3934 21.3225C45.393 21.3225 43.0986 23.4259 43.0986 28.2393V28.9741C43.0986 33.5381 45.0961 35.7493 49.7928 35.7493C51.2976 35.7493 52.7957 35.4729 53.8619 34.6302V35.1763C53.8619 37.7448 52.7417 38.5942 50.1167 38.5942H48.5444C47.6469 38.6077 47.242 38.7695 46.6954 39.6526C42.1944 46.7851 34.3733 51.1401 25.8503 51.1401C12.2528 51.1401 1.19262 40.0706 1.19262 26.4663C1.19262 12.862 12.2528 1.80596 25.8503 1.80596C35.399 1.80596 44.0906 7.34071 48.153 15.9563H49.2867C45.1433 6.73398 35.9591 0.78125 25.8503 0.78125C11.686 0.78125 0.160156 12.3092 0.160156 26.4798C0.160156 40.6504 11.686 52.1783 25.8503 52.1783C34.1776 52.1783 41.8704 48.1806 46.6616 41.5537H50.3394C55.1778 41.5537 57.6611 39.7201 57.6611 35.0482V27.9966C57.6611 23.3517 55.2858 21.3293 50.3934 21.3293V21.3225Z" fill="white"/>
<path d="M41.2175 24.8458L41.8451 21.7852H36.4398V17.6055L32.6406 18.1785V30.6705C32.6406 34.9917 34.3344 36.2726 38.9501 36.2726H40.9746L41.6022 33.239H39.2268C37.1214 33.239 36.4398 32.7199 36.4398 30.421V24.8458H41.2175Z" fill="white"/>
<path d="M115.453 30.2319C115.453 33.1846 114.528 34.1352 111.653 34.1352C108.779 34.1352 107.915 33.1509 107.915 30.2319V22.5938H106.707V30.2319C106.707 33.8655 108.097 35.2812 111.653 35.2812C115.21 35.2812 116.634 33.8183 116.634 30.2319V22.5938H115.453V30.2319Z" fill="white"/>
<path d="M132.267 17.8652H131.086V35.2246H132.267V17.8652Z" fill="white"/>
<path d="M104.528 23.7505L104.791 22.6045H99.5204V19.3281L98.3125 19.5439V30.7684C98.3125 33.9639 99.5069 35.1571 102.733 35.1571H104.474L104.696 34.0111H102.733C100.303 34.0111 99.5272 33.2425 99.5272 30.8358V23.7505H104.534H104.528Z" fill="white"/>
<path d="M127.48 31.5262C127.48 33.3599 126.481 34.0678 123.91 34.0678H123.41C120.934 34.0678 119.874 33.2588 119.874 31.3577V31.1622C119.874 29.0993 120.88 28.2229 123.242 28.2229H123.437C126.265 28.2229 127.473 29.0723 127.473 31.0678V31.533L127.48 31.5262ZM123.249 22.6005H120.057L119.793 23.7465H123.255C126.42 23.7465 127.486 24.5892 127.486 27.0836V28.2903C126.704 27.5015 125.313 27.1038 123.357 27.1038C120.232 27.1038 118.707 28.4319 118.707 31.1554V31.3509C118.707 33.906 120.205 35.2071 123.154 35.2071H123.95C127.075 35.2071 128.667 33.9127 128.667 31.3509V27.0768C128.667 23.8949 127.102 22.5938 123.255 22.5938L123.249 22.6005Z" fill="white"/>
<path d="M88.7821 29.4076V28.3492C88.7821 24.9515 89.9428 23.7515 93.2157 23.7515H95.9824L96.2456 22.6055H93.2157C89.3153 22.6055 87.5742 24.3785 87.5742 28.3492V29.4076C87.5742 33.3784 89.3153 35.1514 93.2157 35.1514H96.0094L96.2726 34.0053H93.2089C90.0238 34.0053 88.7754 32.7177 88.7754 29.4076H88.7821Z" fill="white"/>
<path d="M84.2676 31.5262C84.2676 33.3801 83.3094 34.0678 80.7316 34.0678H80.2322C77.7287 34.0678 76.6625 33.2588 76.6625 31.3577V31.1622C76.6625 29.0993 77.6679 28.2229 80.0298 28.2229H80.2255C83.0529 28.2229 84.2609 29.0723 84.2609 31.0678V31.533L84.2676 31.5262ZM80.0703 22.6005H76.8716L76.6085 23.7465H80.0703C83.2081 23.7465 84.2676 24.5892 84.2676 27.0836V28.2903C83.4848 27.5015 82.0947 27.1038 80.1377 27.1038C77.0134 27.1038 75.4883 28.4319 75.4883 31.1554V31.3509C75.4883 33.906 76.9999 35.2071 79.969 35.2071H80.7653C83.8695 35.2071 85.4485 33.9127 85.4485 31.3509V27.0768C85.4485 23.8949 83.8897 22.5938 80.0703 22.5938V22.6005Z" fill="white"/>
<path d="M72.4332 29.4067C72.4332 32.8112 71.3063 34.0718 68.2696 34.0718C65.3949 34.0718 63.9373 32.6696 63.9373 29.9056V28.2135C63.9373 24.8967 65.1722 23.5484 68.2022 23.5484C71.2321 23.5484 72.4332 24.8495 72.4332 28.1798V29.4067ZM68.2022 22.4023C64.4637 22.4023 62.7227 24.2495 62.7227 28.2135V38.9999H63.9036V33.4584C64.7538 34.564 66.3464 35.2179 68.2696 35.2179C71.9879 35.2179 73.6479 33.4247 73.6479 29.4067V28.1798C73.6479 24.1821 71.9676 22.4023 68.2022 22.4023Z" fill="white"/>
</svg>
