<svg width="15" height="16" viewBox="0 0 15 16" fill="none" xmlns="http://www.w3.org/2000/svg">
<g clip-path="url(#clip0_7750_93)">
<path d="M12.6066 5.04448H11.4434L8.5897 7.89698C8.68799 8.14748 8.69702 8.42418 8.61529 8.68055C8.53356 8.93693 8.36605 9.15734 8.14092 9.30473C7.91578 9.45212 7.64677 9.51749 7.3791 9.48986C7.11144 9.46223 6.86145 9.34328 6.67118 9.153C6.4809 8.96273 6.36195 8.71274 6.33432 8.44508C6.30669 8.17741 6.37206 7.9084 6.51945 7.68326C6.66684 7.45813 6.88725 7.29062 7.14363 7.20889C7.4 7.12716 7.6767 7.13619 7.9272 7.23448L10.7803 4.38136V3.21823C10.7804 3.06259 10.8422 2.91334 10.9522 2.80323L12.0334 1.72198C12.0534 1.70179 12.0785 1.68744 12.1061 1.6805C12.1336 1.67356 12.1625 1.67429 12.1897 1.68261C12.2453 1.69886 12.2866 1.74511 12.2978 1.80198L12.5853 3.24011L14.0228 3.52761C14.0791 3.53886 14.1253 3.58011 14.1416 3.63573C14.1498 3.66275 14.1505 3.69149 14.1437 3.7189C14.1369 3.7463 14.1227 3.77134 14.1028 3.79136L13.0209 4.87261C12.9666 4.92708 12.902 4.9703 12.8309 4.9998C12.7598 5.02929 12.6835 5.04447 12.6066 5.04448Z" fill="#627FFF"/>
<path d="M1.64062 8.32618C1.64062 9.88018 2.25795 11.3705 3.3568 12.4694C4.45564 13.5682 5.946 14.1856 7.5 14.1856C8.26946 14.1856 9.03139 14.034 9.74229 13.7395C10.4532 13.4451 11.0991 13.0135 11.6432 12.4694C12.1873 11.9253 12.6189 11.2794 12.9134 10.5685C13.2078 9.85757 13.3594 9.09564 13.3594 8.32618C13.3594 7.76493 13.2806 7.22243 13.1337 6.7093C13.1046 6.59148 13.1222 6.46693 13.183 6.36186C13.2437 6.25679 13.3429 6.17939 13.4596 6.14595C13.5763 6.1125 13.7014 6.12563 13.8086 6.18256C13.9158 6.23948 13.9967 6.33578 14.0344 6.45118C14.2056 7.04743 14.2969 7.67618 14.2969 8.32618C14.2969 12.0799 11.2537 15.1231 7.5 15.1231C3.74625 15.1231 0.703125 12.0799 0.703125 8.32618C0.703125 4.57243 3.74625 1.5293 7.5 1.5293C8.13438 1.52868 8.765 1.6168 9.375 1.79118C9.43448 1.80786 9.49007 1.83613 9.53858 1.87438C9.58709 1.91262 9.62757 1.96007 9.65768 2.014C9.68779 2.06794 9.70695 2.1273 9.71404 2.18866C9.72114 2.25002 9.71604 2.31218 9.69903 2.37157C9.68202 2.43095 9.65344 2.48639 9.61494 2.53469C9.57643 2.583 9.52876 2.62321 9.47466 2.65303C9.42056 2.68285 9.3611 2.70168 9.2997 2.70844C9.2383 2.7152 9.17617 2.70976 9.11687 2.69243C8.59106 2.54226 8.04684 2.46631 7.5 2.4668C5.946 2.4668 4.45564 3.08413 3.3568 4.18297C2.25795 5.28182 1.64062 6.77217 1.64062 8.32618Z" fill="#627FFF"/>
<path d="M4.45235 8.32604C4.4541 8.73999 4.54019 9.14925 4.70538 9.52881C4.87057 9.90838 5.11139 10.2503 5.41313 10.5337C5.71488 10.8171 6.07121 11.036 6.46039 11.1771C6.84956 11.3182 7.2634 11.3784 7.67665 11.3542C8.0899 11.33 8.49388 11.2219 8.86393 11.0363C9.23397 10.8508 9.56232 10.5918 9.82893 10.2751C10.0955 9.95844 10.2948 9.59076 10.4146 9.1945C10.5343 8.79825 10.5721 8.38174 10.5255 7.97042C10.5124 7.88711 10.522 7.80181 10.5534 7.72354C10.5848 7.64528 10.6368 7.57697 10.7039 7.52585C10.771 7.47473 10.8506 7.4427 10.9344 7.43316C11.0182 7.42362 11.103 7.43693 11.1799 7.47167C11.3367 7.54167 11.4424 7.69104 11.4561 7.86229C11.5531 8.68432 11.3917 9.51616 10.9942 10.2422C10.5966 10.9682 9.98279 11.5524 9.23796 11.9134C8.49313 12.2745 7.65431 12.3946 6.8381 12.2569C6.02188 12.1193 5.26883 11.7308 4.6836 11.1454C4.09854 10.5607 3.70993 9.80838 3.57168 8.99284C3.43343 8.1773 3.55239 7.33895 3.91206 6.59407C4.27172 5.84918 4.85427 5.23468 5.57891 4.83578C6.30354 4.43689 7.13435 4.27337 7.9561 4.36792C8.01823 4.37368 8.07857 4.39179 8.1336 4.42118C8.18864 4.45056 8.23725 4.49064 8.27659 4.53906C8.31594 4.58748 8.34522 4.64327 8.36272 4.70315C8.38022 4.76304 8.3856 4.82581 8.37852 4.8878C8.37145 4.94978 8.35208 5.00974 8.32154 5.06414C8.29099 5.11854 8.2499 5.1663 8.20066 5.20461C8.15142 5.24292 8.09503 5.27102 8.03479 5.28726C7.97455 5.3035 7.91168 5.30754 7.84985 5.29917C7.423 5.24982 6.99053 5.29129 6.58083 5.42088C6.17113 5.55046 5.79347 5.76522 5.47263 6.05106C5.15179 6.3369 4.89503 6.68736 4.71919 7.07943C4.54335 7.47151 4.45242 7.89634 4.45235 8.32604Z" fill="#627FFF"/>
</g>
<defs>
<clipPath id="clip0_7750_93">
<rect width="15" height="15" fill="white" transform="translate(0 0.826172)"/>
</clipPath>
</defs>
</svg>
