<svg width="14" height="15" viewBox="0 0 14 15" fill="none" xmlns="http://www.w3.org/2000/svg">
<path d="M10.052 8.72617C10.108 8.26417 10.15 7.80217 10.15 7.32617C10.15 6.85017 10.108 6.38817 10.052 5.92617H12.418C12.53 6.37417 12.6 6.84317 12.6 7.32617C12.6 7.80917 12.53 8.27817 12.418 8.72617M8.813 12.6182C9.233 11.8412 9.555 11.0012 9.779 10.1262H11.844C11.1658 11.294 10.0899 12.1786 8.813 12.6182ZM8.638 8.72617H5.362C5.292 8.26417 5.25 7.80217 5.25 7.32617C5.25 6.85017 5.292 6.38117 5.362 5.92617H8.638C8.701 6.38117 8.75 6.85017 8.75 7.32617C8.75 7.80217 8.701 8.26417 8.638 8.72617ZM7 12.8982C6.419 12.0582 5.95 11.1272 5.663 10.1262H8.337C8.05 11.1272 7.581 12.0582 7 12.8982ZM4.2 4.52617H2.156C2.82705 3.3551 3.90226 2.46904 5.18 2.03417C4.76 2.81117 4.445 3.65117 4.2 4.52617ZM2.156 10.1262H4.2C4.445 11.0012 4.76 11.8412 5.18 12.6182C3.90479 12.1788 2.831 11.2939 2.156 10.1262ZM1.582 8.72617C1.47 8.27817 1.4 7.80917 1.4 7.32617C1.4 6.84317 1.47 6.37417 1.582 5.92617H3.948C3.892 6.38817 3.85 6.85017 3.85 7.32617C3.85 7.80217 3.892 8.26417 3.948 8.72617M7 1.74717C7.581 2.58717 8.05 3.52517 8.337 4.52617H5.663C5.95 3.52517 6.419 2.58717 7 1.74717ZM11.844 4.52617H9.779C9.55958 3.6593 9.23518 2.82245 8.813 2.03417C10.101 2.47517 11.172 3.36417 11.844 4.52617ZM7 0.326172C3.129 0.326172 0 3.47617 0 7.32617C0 9.18269 0.737498 10.9632 2.05025 12.2759C2.70026 12.9259 3.47194 13.4415 4.32122 13.7933C5.17049 14.1451 6.08075 14.3262 7 14.3262C8.85651 14.3262 10.637 13.5887 11.9497 12.2759C13.2625 10.9632 14 9.18269 14 7.32617C14 6.40692 13.8189 5.49667 13.4672 4.64739C13.1154 3.79811 12.5998 3.02643 11.9497 2.37642C11.2997 1.72641 10.5281 1.2108 9.67878 0.859015C8.8295 0.507232 7.91925 0.326172 7 0.326172Z" fill="#627FFF"/>
</svg>
