<svg width="19" height="20" viewBox="0 0 19 20" fill="none" xmlns="http://www.w3.org/2000/svg">
<path fill-rule="evenodd" clip-rule="evenodd" d="M9.51082 12.8172L15.9093 19.2085C16.2489 19.5476 16.7094 19.7381 17.1895 19.7381C17.6697 19.7381 18.1302 19.5476 18.4697 19.2085C18.8093 18.8693 19 18.4093 19 17.9297C19 17.4501 18.8093 16.9901 18.4697 16.651L12.0688 10.2598L18.4685 3.86853C18.6366 3.7006 18.7698 3.50126 18.8607 3.28189C18.9517 3.06251 18.9984 2.8274 18.9984 2.58998C18.9983 2.35255 18.9514 2.11746 18.8604 1.89813C18.7694 1.6788 18.636 1.47952 18.4679 1.31167C18.2998 1.14383 18.1002 1.0107 17.8806 0.919893C17.661 0.829086 17.4256 0.782377 17.1879 0.782432C16.9502 0.782488 16.7148 0.829308 16.4953 0.920219C16.2757 1.01113 16.0762 1.14435 15.9081 1.31228L9.51082 7.70351L3.11229 1.31228C2.94542 1.13953 2.74577 1.00172 2.525 0.90687C2.30424 0.812022 2.06677 0.76204 1.82645 0.759841C1.58614 0.757643 1.3478 0.803272 1.12533 0.894066C0.902858 0.98486 0.700719 1.119 0.530705 1.28866C0.360691 1.45832 0.226207 1.6601 0.1351 1.88223C0.0439926 2.10436 -0.00191312 2.34239 6.10735e-05 2.58243C0.00203526 2.82247 0.0518496 3.05972 0.146598 3.28032C0.241347 3.50093 0.379131 3.70048 0.551913 3.86732L6.95286 10.2598L0.55312 16.6522C0.380338 16.8191 0.242554 17.0186 0.147805 17.2392C0.0530567 17.4598 0.00324176 17.6971 0.00126757 17.9371C-0.000706617 18.1771 0.0451991 18.4152 0.136306 18.6373C0.227414 18.8594 0.361898 19.0612 0.531912 19.2309C0.701926 19.4005 0.904064 19.5347 1.12653 19.6255C1.349 19.7163 1.58735 19.7619 1.82766 19.7597C2.06797 19.7575 2.30544 19.7075 2.52621 19.6127C2.74698 19.5178 2.94662 19.38 3.1135 19.2073L9.51082 12.8172Z" fill="black"/>
</svg>
