<svg width="36" height="37" viewBox="0 0 36 37" fill="none" xmlns="http://www.w3.org/2000/svg">
<path d="M7.02743 9.62109H5.07428C4.03826 9.62109 3.04467 10.0422 2.3121 10.7918C1.57952 11.5413 1.16797 12.5579 1.16797 13.618V31.6039C1.16797 32.664 1.57952 33.6806 2.3121 34.4301C3.04467 35.1797 4.03826 35.6008 5.07428 35.6008H22.6527C23.6887 35.6008 24.6823 35.1797 25.4148 34.4301C26.1474 33.6806 26.559 32.664 26.559 31.6039V29.6055" stroke="#667085" stroke-width="2.31625" stroke-linecap="round" stroke-linejoin="round"/>
<path d="M24.6018 5.62209L30.4612 11.6174M33.1663 8.78962C33.9356 8.00254 34.3677 6.93503 34.3677 5.82194C34.3677 4.70884 33.9356 3.64133 33.1663 2.85425C32.3971 2.06718 31.3538 1.625 30.2659 1.625C29.178 1.625 28.1347 2.06718 27.3655 2.85425L10.9297 19.6112V25.6065H16.7892L33.1663 8.78962Z" stroke="#667085" stroke-width="2.31625" stroke-linecap="round" stroke-linejoin="round"/>
</svg>
