<svg width="35" height="34" viewBox="0 0 35 34" fill="none" xmlns="http://www.w3.org/2000/svg">
<path d="M29.0335 21.4005C27.9057 21.3999 26.8097 21.7816 25.9185 22.4853L22.2325 19.5621C22.5107 18.9126 22.6541 18.2115 22.6535 17.5029C22.6535 17.3827 22.6535 17.2626 22.6408 17.144L24.751 16.4278C25.4186 17.4762 26.4348 18.2445 27.6134 18.5922C28.7921 18.9398 30.0543 18.8434 31.1689 18.3207C32.2835 17.798 33.1758 16.8839 33.6823 15.7458C34.1889 14.6078 34.2758 13.3221 33.9272 12.1241C33.5785 10.9262 32.8177 9.89619 31.784 9.22288C30.7503 8.54957 29.5129 8.278 28.2986 8.4579C27.0842 8.63781 25.9742 9.25716 25.1718 10.2025C24.3694 11.1478 23.9284 12.3559 23.9295 13.6053C23.9295 13.7255 23.9295 13.8456 23.9423 13.9642L21.8321 14.6804C21.3695 13.9522 20.7353 13.3535 19.9873 12.9388C19.2393 12.5241 18.4013 12.3066 17.5496 12.3061C17.2679 12.3067 16.9868 12.3306 16.709 12.3775L15.618 9.87009C16.56 9.1037 17.2052 8.02249 17.439 6.81806C17.6729 5.61364 17.4804 4.36381 16.8957 3.29008C16.311 2.21635 15.3718 1.38807 14.2446 0.952048C13.1174 0.516028 11.875 0.500425 10.7376 0.908005C9.60017 1.31558 8.6412 2.12002 8.03065 3.17874C7.42011 4.23746 7.19741 5.48209 7.40204 6.69201C7.60667 7.90194 8.22541 8.99903 9.14859 9.78884C10.0718 10.5786 11.2398 11.0102 12.4456 11.0069C12.7272 11.0063 13.0083 10.9824 13.2861 10.9354L14.3771 13.4364C13.4519 14.182 12.8098 15.2315 12.5605 16.4057C12.3112 17.5799 12.4701 18.8059 13.0102 19.874L8.90947 23.5832C7.87748 22.8748 6.62718 22.574 5.39294 22.7371C4.15869 22.9002 3.02523 23.516 2.20502 24.4691C1.3848 25.4222 0.934147 26.6472 0.937519 27.9144C0.940891 29.1817 1.39806 30.4041 2.22333 31.3527C3.04861 32.3013 4.18533 32.9109 5.42042 33.0671C6.65552 33.2234 7.9042 32.9157 8.9324 32.2016C9.96061 31.4876 10.6977 30.4162 11.0057 29.1884C11.3136 27.9606 11.1711 26.6605 10.6049 25.532L14.7057 21.8228C15.5936 22.4314 16.6473 22.7396 17.7171 22.7035C18.7869 22.6673 19.8183 22.2887 20.6646 21.6214L24.3506 24.5446C24.0732 25.1921 23.9299 25.8909 23.9295 26.5973C23.9295 27.6252 24.2289 28.6299 24.7897 29.4845C25.3505 30.3391 26.1477 31.0052 27.0803 31.3986C28.0129 31.7919 29.0392 31.8948 30.0293 31.6943C31.0193 31.4938 31.9288 30.9988 32.6426 30.272C33.3564 29.5452 33.8425 28.6193 34.0394 27.6112C34.2364 26.6031 34.1353 25.5582 33.749 24.6086C33.3627 23.659 32.7085 22.8474 31.8691 22.2763C31.0298 21.7053 30.043 21.4005 29.0335 21.4005ZM29.0335 11.0069C29.5382 11.0069 30.0317 11.1593 30.4513 11.4448C30.871 11.7303 31.1981 12.1361 31.3912 12.6109C31.5844 13.0857 31.6349 13.6082 31.5365 14.1122C31.438 14.6163 31.1949 15.0793 30.838 15.4426C30.4811 15.806 30.0264 16.0535 29.5314 16.1538C29.0363 16.254 28.5232 16.2026 28.0569 16.0059C27.5906 15.8092 27.192 15.4762 26.9116 15.0489C26.6312 14.6216 26.4815 14.1192 26.4815 13.6053C26.4815 12.9162 26.7504 12.2552 27.229 11.7679C27.7076 11.2806 28.3567 11.0069 29.0335 11.0069ZM9.89358 5.81008C9.89358 5.29616 10.0433 4.79378 10.3237 4.36648C10.6041 3.93917 11.0027 3.60613 11.469 3.40946C11.9353 3.21279 12.4484 3.16134 12.9434 3.2616C13.4385 3.36186 13.8932 3.60933 14.2501 3.97272C14.607 4.33612 14.8501 4.79911 14.9485 5.30315C15.047 5.80719 14.9965 6.32965 14.8033 6.80444C14.6101 7.27924 14.2831 7.68505 13.8634 7.97057C13.4437 8.25609 12.9503 8.40848 12.4456 8.40848C11.7687 8.40848 11.1196 8.13472 10.641 7.64743C10.1624 7.16013 9.89358 6.49922 9.89358 5.81008ZM6.06559 30.4949C5.56086 30.4949 5.06746 30.3425 4.64778 30.057C4.22811 29.7715 3.90101 29.3657 3.70786 28.8909C3.51471 28.4161 3.46417 27.8936 3.56264 27.3896C3.66111 26.8856 3.90416 26.4226 4.26106 26.0592C4.61796 25.6958 5.07269 25.4483 5.56772 25.348C6.06276 25.2478 6.57588 25.2992 7.0422 25.4959C7.50851 25.6926 7.90708 26.0256 8.1875 26.4529C8.46791 26.8802 8.61758 27.3826 8.61758 27.8965C8.61758 28.5857 8.34871 29.2466 7.87012 29.7339C7.39153 30.2212 6.74242 30.4949 6.06559 30.4949ZM14.9976 17.5029C14.9976 16.989 15.1472 16.4866 15.4276 16.0593C15.7081 15.632 16.1066 15.299 16.5729 15.1023C17.0393 14.9056 17.5524 14.8542 18.0474 14.9544C18.5425 15.0547 18.9972 15.3022 19.3541 15.6656C19.711 16.0289 19.954 16.4919 20.0525 16.996C20.151 17.5 20.1004 18.0225 19.9073 18.4973C19.7141 18.9721 19.387 19.3779 18.9674 19.6634C18.5477 19.9489 18.0543 20.1013 17.5496 20.1013C16.8727 20.1013 16.2236 19.8275 15.745 19.3403C15.2664 18.853 14.9976 18.192 14.9976 17.5029ZM29.0335 29.1957C28.5288 29.1957 28.0354 29.0433 27.6157 28.7578C27.196 28.4723 26.8689 28.0665 26.6758 27.5917C26.4826 27.1169 26.4321 26.5944 26.5306 26.0904C26.629 25.5864 26.8721 25.1234 27.229 24.76C27.5859 24.3966 28.0406 24.1491 28.5356 24.0488C29.0307 23.9486 29.5438 24 30.0101 24.1967C30.4764 24.3934 30.875 24.7264 31.1554 25.1537C31.4358 25.581 31.5855 26.0834 31.5855 26.5973C31.5855 27.2865 31.3166 27.9474 30.838 28.4347C30.3595 28.922 29.7103 29.1957 29.0335 29.1957Z" fill="#667085"/>
</svg>
