<svg width="34" height="34" viewBox="0 0 34 34" fill="none" xmlns="http://www.w3.org/2000/svg">
<path d="M30.0087 0.613281H28.2142C26.2319 0.613281 24.625 2.26484 24.625 4.30213V30.1241C24.625 32.1614 26.2319 33.8129 28.2142 33.8129H30.0087C31.991 33.8129 33.5979 32.1614 33.5979 30.1241V4.30213C33.5979 2.26484 31.991 0.613281 30.0087 0.613281Z" fill="#667085"/>
<path d="M17.9885 11.3809H16.0145C13.834 11.3809 12.0664 13.0547 12.0664 15.1196V30.0744C12.0664 32.1392 13.834 33.8131 16.0145 33.8131H17.9885C20.169 33.8131 21.9366 32.1392 21.9366 30.0744V15.1196C21.9366 13.0547 20.169 11.3809 17.9885 11.3809Z" fill="#667085"/>
<path d="M5.78607 24.8398H3.99149C2.00926 24.8398 0.402344 26.4468 0.402344 28.429V30.2236C0.402344 32.2058 2.00926 33.8127 3.99149 33.8127H5.78607C7.7683 33.8127 9.37522 32.2058 9.37522 30.2236V28.429C9.37522 26.4468 7.7683 24.8398 5.78607 24.8398Z" fill="#667085"/>
</svg>
