<svg width="35" height="34" viewBox="0 0 35 34" fill="none" xmlns="http://www.w3.org/2000/svg">
<path d="M27.4975 27.1733C28.378 27.1733 29.2225 27.5231 29.8451 28.1457C30.4677 28.7683 30.8175 29.6128 30.8175 30.4933C30.8175 31.3738 30.4677 32.2183 29.8451 32.8409C29.2225 33.4635 28.378 33.8133 27.4975 33.8133C26.617 33.8133 25.7725 33.4635 25.1499 32.8409C24.5273 32.2183 24.1775 31.3738 24.1775 30.4933C24.1775 28.6507 25.6549 27.1733 27.4975 27.1733ZM0.9375 0.613281H6.3657L7.9261 3.93328H32.4775C32.9178 3.93328 33.34 4.10817 33.6513 4.41948C33.9626 4.7308 34.1375 5.15302 34.1375 5.59328C34.1375 5.87548 34.0545 6.15768 33.9383 6.42328L27.9955 17.1635C27.4311 18.1761 26.3355 18.8733 25.0905 18.8733H12.7235L11.2295 21.5791L11.1797 21.7783C11.1797 21.8883 11.2234 21.9939 11.3013 22.0717C11.3791 22.1496 11.4846 22.1933 11.5947 22.1933H30.8175V25.5133H10.8975C10.017 25.5133 9.17253 25.1635 8.54991 24.5409C7.92728 23.9183 7.5775 23.0738 7.5775 22.1933C7.5775 21.6123 7.7269 21.0645 7.9759 20.5997L10.2335 16.5327L4.2575 3.93328H0.9375V0.613281ZM10.8975 27.1733C11.778 27.1733 12.6225 27.5231 13.2451 28.1457C13.8677 28.7683 14.2175 29.6128 14.2175 30.4933C14.2175 31.3738 13.8677 32.2183 13.2451 32.8409C12.6225 33.4635 11.778 33.8133 10.8975 33.8133C10.017 33.8133 9.17253 33.4635 8.54991 32.8409C7.92728 32.2183 7.5775 31.3738 7.5775 30.4933C7.5775 28.6507 9.0549 27.1733 10.8975 27.1733ZM25.8375 15.5533L30.4523 7.25328H9.4699L13.3875 15.5533H25.8375Z" fill="#667085"/>
</svg>
