<svg width="35" height="35" viewBox="0 0 35 35" fill="none" xmlns="http://www.w3.org/2000/svg">
<path d="M20.826 21.7191V7.39904M20.826 21.7191L31.6788 27.9608C31.841 28.0542 32.0247 28.1031 32.2116 28.1026C32.3985 28.1022 32.5819 28.0523 32.7436 27.9581C32.9053 27.8638 33.0396 27.7285 33.133 27.5656C33.2265 27.4028 33.2758 27.2181 33.276 27.03V2.0881C33.2761 1.89988 33.227 1.71496 33.1337 1.55184C33.0404 1.38873 32.9061 1.25315 32.7444 1.1587C32.5826 1.06425 32.3991 1.01424 32.212 1.01368C32.025 1.01312 31.8412 1.06202 31.6788 1.1555L20.826 7.39904M20.826 21.7191H8.376M20.826 7.39904H8.376C6.48918 7.39904 4.67963 8.15339 3.34544 9.49616C2.01126 10.8389 1.26172 12.6601 1.26172 14.5591C1.26172 16.458 2.01126 18.2792 3.34544 19.622C4.67963 20.9647 6.48918 21.7191 8.376 21.7191M8.376 21.7191L9.72238 31.2061C9.86287 32.1291 10.3596 32.959 11.1047 33.5155C11.8497 34.072 12.7829 34.3101 13.7014 34.178C14.6199 34.046 15.4495 33.5545 16.0099 32.8103C16.5703 32.0661 16.8163 31.1294 16.6944 30.2037L15.4903 21.7191H8.376Z" stroke="#667085" stroke-width="1.5"/>
</svg>
